<svg height="512pt" viewBox="0 0 512 512.0011" width="512pt" xmlns="http://www.w3.org/2000/svg" xmlns:xlink="http://www.w3.org/1999/xlink"><linearGradient id="a"><stop offset="0" stop-color="#662d91"/><stop offset=".437" stop-color="#3873b3"/><stop offset="1" stop-color="#00c9dd"/></linearGradient><linearGradient id="b" gradientTransform="matrix(.995687 0 0 -.995687 .00055 502.814102)" gradientUnits="userSpaceOnUse" x1="-10.7128" x2="504.0025" xlink:href="#a" y1="537.1307" y2="22.4153"/><linearGradient id="c" gradientTransform="matrix(.995687 0 0 -.995687 .00055 502.814102)" gradientUnits="userSpaceOnUse" x1="-32.1386" x2="482.5768" xlink:href="#a" y1="515.7049" y2=".9896"/><linearGradient id="d" gradientTransform="matrix(.995687 0 0 -.995687 .00055 502.814102)" gradientUnits="userSpaceOnUse" x1="117.8417" x2="632.5571" xlink:href="#a" y1="665.6852" y2="150.9699"/><linearGradient id="e" gradientTransform="matrix(.995687 0 0 -.995687 .00055 502.814102)" gradientUnits="userSpaceOnUse" x1="96.416" x2="611.1313" xlink:href="#a" y1="644.2595" y2="129.5441"/><linearGradient id="f" gradientTransform="matrix(.995687 0 0 -.995687 .00055 502.814102)" gradientUnits="userSpaceOnUse" x1="-156.408" x2="358.3073" xlink:href="#a" y1="391.4355" y2="-123.2799"/><linearGradient id="g" gradientTransform="matrix(.995687 0 0 -.995687 .00055 502.814102)" gradientUnits="userSpaceOnUse" x1="-177.8338" x2="336.8816" xlink:href="#a" y1="370.0097" y2="-144.7056"/><linearGradient id="h" gradientTransform="matrix(.995687 0 0 -.995687 .00055 502.814102)" gradientUnits="userSpaceOnUse" x1="-34.2697" x2="480.4457" xlink:href="#a" y1="513.5739" y2="-1.1415"/><linearGradient id="i" gradientTransform="matrix(.995687 0 0 -.995687 .00055 502.814102)" gradientUnits="userSpaceOnUse" x1="-51.4218" x2="463.2936" xlink:href="#a" y1="496.4217" y2="-18.2936"/><linearGradient id="j" gradientTransform="matrix(.995687 0 0 -.995687 .00055 502.814102)" gradientUnits="userSpaceOnUse" x1="-34.2812" x2="480.4342" xlink:href="#a" y1="513.5623" y2="-1.153"/><linearGradient id="k" gradientTransform="matrix(.995687 0 0 -.995687 .00055 502.814102)" gradientUnits="userSpaceOnUse" x1="-17.1406" x2="497.5748" xlink:href="#a" y1="530.7029" y2="15.9876"/><linearGradient id="l" gradientTransform="matrix(.995687 0 0 -.995687 .00055 502.814102)" gradientUnits="userSpaceOnUse" x1=".000055" x2="514.7154" xlink:href="#a" y1="547.8436" y2="33.1282"/><linearGradient id="m" gradientTransform="matrix(.995687 0 0 -.995687 .00055 502.814102)" gradientUnits="userSpaceOnUse" x1="17.1407" x2="531.856" xlink:href="#a" y1="564.9842" y2="50.2688"/><path d="m25.601562 0h17.066407v25.601562h-17.066407zm0 0" fill="url(#b)"/><path d="m42.667969 25.601562h25.601562v17.066407h-25.601562zm0 0" fill="url(#b)"/><path d="m0 25.601562h25.601562v17.066407h-25.601562zm0 0" fill="url(#c)"/><path d="m25.601562 42.667969h17.066407v25.597656h-17.066407zm0 0" fill="url(#c)"/><path d="m469.335938 187.734375h17.066406v25.597656h-17.066406zm0 0" fill="url(#d)"/><path d="m486.402344 213.332031h25.597656v17.070313h-25.597656zm0 0" fill="url(#d)"/><path d="m443.734375 213.332031h25.601563v17.070313h-25.601563zm0 0" fill="url(#e)"/><path d="m469.335938 230.398438h17.066406v25.601562h-17.066406zm0 0" fill="url(#e)"/><path d="m59.734375 324.265625h17.066406v25.601563h-17.066406zm0 0" fill="url(#f)"/><path d="m76.800781 349.867188h25.601563v17.066406h-25.601563zm0 0" fill="url(#f)"/><path d="m34.132812 349.867188h25.601563v17.066406h-25.601563zm0 0" fill="url(#g)"/><path d="m59.734375 366.933594h17.066406v25.601562h-17.066406zm0 0" fill="url(#g)"/><path d="m104.421875 508.980469c1.621094 1.914062 4.003906 3.019531 6.511719 3.019531h290.132812c4.714844 0 8.53125-3.824219 8.53125-8.535156 0-.46875-.039062-.933594-.117187-1.398438l-42.410157-254.503906 25.320313-135.050781c.632813-3.363281-.804687-6.777344-3.652344-8.675781-14.109375-9.363282-23.257812-24.578126-24.910156-41.429688l-5.429687-54.726562c-.4375-4.375-4.132813-7.6992192-8.53125-7.679688h-25.601563c-1.316406.0273438-2.613281.367188-3.78125.984375v-.089844l-4.546875 2.28125c-37.734375 18.746094-82.070312 18.746094-119.808594 0l-4.546875-2.28125v.085938c-1.1875-.625-2.503906-.9609378-3.847656-.980469h-25.601563c-4.398437-.0234375-8.09375 3.304688-8.53125 7.679688l-5.472656 54.722656c-1.652344 16.851562-10.796875 32.066406-24.90625 41.429687-2.847656 1.898438-4.285156 5.316407-3.652344 8.679688l25.316407 135.050781-42.410157 254.503906c-.398437 2.480469.3125 5.007813 1.945313 6.914063zm203.632813-483.882813-43.109376 102.398438c-2.082031 4.929687-7.765624 7.234375-12.691406 5.152344-2.324218-.980469-4.171875-2.828126-5.152344-5.152344l-43.113281-102.398438c16.667969 6.085938 34.269531 9.203125 52.011719 9.207032 17.757812 0 35.375-3.117188 52.054688-9.207032zm-146.039063 223.769532c.171875-.984376.171875-1.996094 0-2.980469l-24.628906-131.214844c15.769531-12.359375 25.804687-30.628906 27.769531-50.570313l4.699219-47.035156h12.210937l49.28125 117.042969c5.738282 13.613281 21.425782 20 35.042969 14.265625 6.433594-2.714844 11.554687-7.832031 14.265625-14.265625l49.277344-117.042969h12.253906l4.703125 47.035156c1.953125 19.933594 11.96875 38.203126 27.726563 50.570313l-24.601563 131.214844c-.175781.984375-.175781 1.996093 0 2.980469l40.976563 246.066406h-269.980469zm0 0" fill="url(#h)"/><path d="m179.199219 238.933594h17.066406v17.066406h-17.066406zm0 0" fill="url(#i)"/><path d="m213.335938 238.933594h17.066406v17.066406h-17.066406zm0 0" fill="url(#j)"/><path d="m247.46875 238.933594h17.066406v17.066406h-17.066406zm0 0" fill="url(#k)"/><path d="m281.601562 238.933594h17.066407v17.066406h-17.066407zm0 0" fill="url(#l)"/><path d="m315.734375 238.933594h17.066406v17.066406h-17.066406zm0 0" fill="url(#m)"/></svg>