<svg height="511pt" viewBox="0 0 511.99938 511" width="511pt" xmlns="http://www.w3.org/2000/svg" xmlns:xlink="http://www.w3.org/1999/xlink"><linearGradient id="a"><stop offset="0" stop-color="#662d91"/><stop offset=".437" stop-color="#3873b3"/><stop offset="1" stop-color="#00c9dd"/></linearGradient><linearGradient id="b" gradientTransform="matrix(.994269 0 0 -.994269 -.0001 502.961763)" gradientUnits="userSpaceOnUse" x1="-73.9107" x2="370.6909" xlink:href="#a" y1="365.3798" y2="-79.2218"/><linearGradient id="c" gradientTransform="matrix(.994269 0 0 -.994269 -.0001 502.961763)" gradientUnits="userSpaceOnUse" x1="144.632" x2="589.2337" xlink:href="#a" y1="583.9226" y2="139.3209"/><linearGradient id="d" gradientTransform="matrix(.994269 0 0 -.994269 -.0001 502.961763)" gradientUnits="userSpaceOnUse" x1="93.2102" x2="537.8119" xlink:href="#a" y1="532.5007" y2="87.8991"/><linearGradient id="e" gradientTransform="matrix(.994269 0 0 -.994269 -.0001 502.961763)" gradientUnits="userSpaceOnUse" x1="33.2181" x2="477.8198" xlink:href="#a" y1="472.5086" y2="27.907"/><linearGradient id="f" gradientTransform="matrix(.994269 0 0 -.994269 -.0001 502.961763)" gradientUnits="userSpaceOnUse" x1="28.9328" x2="473.5345" xlink:href="#a" y1="468.2233" y2="23.6217"/><linearGradient id="g" gradientTransform="matrix(.994269 0 0 -.994269 -.0001 502.961763)" gradientUnits="userSpaceOnUse" x1="-35.3443" x2="409.2573" xlink:href="#a" y1="403.9462" y2="-40.6555"/><linearGradient id="h" gradientTransform="matrix(.994269 0 0 -.994269 -.0001 502.961763)" gradientUnits="userSpaceOnUse" x1="-5.3483" x2="439.2534" xlink:href="#a" y1="433.9423" y2="-10.6594"/><linearGradient id="i" gradientTransform="matrix(.994269 0 0 -.994269 -.0001 502.961763)" gradientUnits="userSpaceOnUse" x1="11.7915" x2="456.3932" xlink:href="#a" y1="451.082" y2="6.4804"/><linearGradient id="j" gradientTransform="matrix(.994269 0 0 -.994269 -.0001 502.961763)" gradientUnits="userSpaceOnUse" x1="71.7845" x2="516.3861" xlink:href="#a" y1="511.075" y2="66.4733"/><linearGradient id="k" gradientTransform="matrix(.994269 0 0 -.994269 -.0001 502.961763)" gradientUnits="userSpaceOnUse" x1="153.2024" x2="597.804" xlink:href="#a" y1="592.4929" y2="147.8912"/><linearGradient id="l" gradientTransform="matrix(.994269 0 0 -.994269 -.0001 502.961763)" gradientUnits="userSpaceOnUse" x1="138.2043" x2="582.806" xlink:href="#a" y1="577.4949" y2="132.8932"/><linearGradient id="m" gradientTransform="matrix(.994269 0 0 -.994269 -.0001 502.961763)" gradientUnits="userSpaceOnUse" x1="121.0637" x2="565.6654" xlink:href="#a" y1="560.3542" y2="115.7526"/><linearGradient id="n" gradientTransform="matrix(.994269 0 0 -.994269 -.0001 502.961763)" gradientUnits="userSpaceOnUse" x1="-86.7662" x2="357.8355" xlink:href="#a" y1="352.5244" y2="-92.0773"/><linearGradient id="o" gradientTransform="matrix(.994269 0 0 -.994269 -.0001 502.961763)" gradientUnits="userSpaceOnUse" x1="-69.6256" x2="374.9761" xlink:href="#a" y1="369.665" y2="-74.9367"/><linearGradient id="p" gradientTransform="matrix(.994269 0 0 -.994269 -.0001 502.961763)" gradientUnits="userSpaceOnUse" x1="79.472" x2="524.0737" xlink:href="#a" y1="518.754" y2="74.1523"/><path d="m230.4375 460.644531h51.128906v17.042969h-51.128906zm0 0" fill="url(#b)"/><path d="m213.394531 26.0625h85.214844v17.042969h-85.214844zm0 0" fill="url(#c)"/><path d="m145.226562 26.0625h17.042969v17.042969h-17.042969zm0 0" fill="url(#d)"/><path d="m417.902344 247.613281c-5.71875.019531-11.421875.566407-17.039063 1.628907v-240.222657c0-4.703125-3.816406-8.519531-8.523437-8.519531h-272.675782c-4.707031 0-8.523437 3.816406-8.523437 8.519531v44.234375c-50.867187-9.605468-99.890625 23.84375-109.496094 74.714844-9.605469 50.867188 23.84375 99.890625 74.714844 109.496094 11.492187 2.171875 23.289063 2.171875 34.78125 0v265.785156c0 4.703125 3.816406 8.519531 8.523437 8.519531h272.675782c4.707031 0 8.523437-3.816406 8.523437-8.519531v-69.796875c50.867188 9.601563 99.890625-23.851563 109.492188-74.71875 9.605469-50.871094-23.851563-99.890625-74.71875-109.496094-5.84375-1.101562-11.78125-1.648437-17.734375-1.625zm-34.082032-230.070312v34.082031h-255.636718v-34.082031zm-366.410156 127.816406c0-42.355469 34.335938-76.691406 76.6875-76.691406 42.355469 0 76.691406 34.335937 76.691406 76.691406s-34.335937 76.691406-76.691406 76.691406c-42.335937-.046875-76.640625-34.355469-76.6875-76.691406zm170.421875 0c-.023437-30.558594-14.957031-59.183594-40.007812-76.691406h235.996093v185.457031c-48.167968 18.746094-72.015624 72.992188-53.269531 121.160156 8.863281 22.769532 26.28125 41.175782 48.53125 51.273438h-250.898437v-193.976563c35.921875-14.046875 59.585937-48.652343 59.648437-87.222656zm195.988281 349.367187h-255.636718v-51.125h255.636718zm34.082032-76.6875c-42.351563 0-76.6875-34.339843-76.6875-76.691406 0-42.355468 34.335937-76.691406 76.6875-76.691406 42.355468 0 76.691406 34.335938 76.691406 76.691406-.046875 42.335938-34.355469 76.644532-76.691406 76.691406zm0 0" fill="url(#e)"/><path d="m213.566406 300.445312c.808594 3.96875 4.300782 6.816407 8.351563 6.816407v25.5625c0 4.707031 3.8125 8.523437 8.519531 8.523437h76.691406v-17.042968h-68.167968v-17.042969h59.648437c3.910156-.003907 7.316406-2.664063 8.265625-6.460938l17.039062-68.167969c1.140626-4.566406-1.636718-9.191406-6.203124-10.332031-.675782-.167969-1.367188-.253906-2.0625-.253906h-100.378907l-2.042969-10.222656c-.8125-3.96875-4.304687-6.816407-8.351562-6.816407h-25.566406v17.042969h18.578125zm91.175782-61.351562-12.78125 51.125h-63.054688l-10.226562-51.125zm0 0" fill="url(#f)"/><path d="m247.480469 366.910156c0 9.414063-7.628907 17.042969-17.042969 17.042969s-17.042969-7.628906-17.042969-17.042969c0-9.410156 7.628907-17.042968 17.042969-17.042968s17.042969 7.632812 17.042969 17.042968zm0 0" fill="url(#g)"/><path d="m307.128906 366.910156c0 9.414063-7.628906 17.042969-17.042968 17.042969-9.414063 0-17.042969-7.628906-17.042969-17.042969 0-9.410156 7.628906-17.042968 17.042969-17.042968 9.414062 0 17.042968 7.632812 17.042968 17.042968zm0 0" fill="url(#h)"/><path d="m151.25 122.292969-25.5625-25.5625c-1.597656-1.597657-3.765625-2.496094-6.023438-2.496094h-51.128906c-2.257812 0-4.425781.898437-6.023437 2.496094l-25.566407 25.5625c-2.996093 2.996093-3.335937 7.742187-.789062 11.136719l51.125 68.167968c2.824219 3.765625 8.164062 4.527344 11.929688 1.707032.644531-.484376 1.21875-1.058594 1.703124-1.707032l51.128907-68.167968c2.542969-3.394532 2.207031-8.140626-.792969-11.136719zm-65.671875 48.628906-25.5625-34.085937h25.5625zm17.042969-34.085937h25.5625l-25.5625 34.085937zm22.035156-17.039063h-22.035156v-8.523437h13.515625zm-52.59375-8.523437h13.515625v8.523437h-22.035156zm0 0" fill="url(#i)"/><path d="m451.988281 290.21875h-68.167969c-4.707031 0-8.523437 3.816406-8.523437 8.523438v85.210937c0 4.707031 3.816406 8.519531 8.523437 8.519531h68.167969c4.707031 0 8.519531-3.8125 8.519531-8.519531v-85.210937c.003907-4.707032-3.8125-8.523438-8.519531-8.523438zm-8.519531 17.042969v8.519531h-51.128906v-8.519531zm-17.042969 68.171875v-25.566406c0-4.703126-3.816406-8.519532-8.523437-8.519532-4.703125 0-8.519532 3.816406-8.519532 8.519532v25.566406h-17.042968v-42.609375h51.128906v42.609375zm0 0" fill="url(#j)"/><path d="m315.648438 94.234375h51.128906v17.039063h-51.128906zm0 0" fill="url(#k)"/><path d="m324.171875 128.316406h42.605469v17.042969h-42.605469zm0 0" fill="url(#l)"/><path d="m324.171875 162.402344h42.605469v17.042968h-42.605469zm0 0" fill="url(#m)"/><path d="m145.226562 392.472656h34.082032v17.042969h-34.082032zm0 0" fill="url(#n)"/><path d="m145.226562 358.390625h34.082032v17.042969h-34.082032zm0 0" fill="url(#o)"/><path d="m256 205.007812c2.261719 0 4.429688-.898437 6.027344-2.496093l34.082031-34.085938-12.046875-12.046875-19.539062 19.539063v-47.601563h-17.042969v47.601563l-19.539063-19.539063-12.050781 12.046875 34.085937 34.085938c1.597657 1.597656 3.765626 2.496093 6.023438 2.496093zm0 0" fill="url(#p)"/></svg>