<svg height="512pt" viewBox="-77 0 512 512.001" width="512pt" xmlns="http://www.w3.org/2000/svg" xmlns:xlink="http://www.w3.org/1999/xlink"><linearGradient id="a"><stop offset="0" stop-color="#662d91"/><stop offset=".437" stop-color="#3873b3"/><stop offset="1" stop-color="#00c9dd"/></linearGradient><linearGradient id="b" gradientTransform="matrix(.995687 0 0 -.995687 -76.799799 502.813994)" gradientUnits="userSpaceOnUse" x1="43.9071" x2="464.6405" xlink:href="#a" y1="417.4908" y2="-3.2426"/><linearGradient id="c" gradientTransform="matrix(.995687 0 0 -.995687 -76.799799 502.813994)" gradientUnits="userSpaceOnUse" x1="45.8448" x2="466.5697" xlink:href="#a" y1="419.4199" y2="-1.3135"/><linearGradient id="d" gradientTransform="matrix(.995687 0 0 -.995687 -76.799799 502.813994)" gradientUnits="userSpaceOnUse" x1="14.0425" x2="434.7758" xlink:href="#a" y1="387.6261" y2="-33.1073"/><linearGradient id="e" gradientTransform="matrix(.995687 0 0 -.995687 -76.799799 502.813994)" gradientUnits="userSpaceOnUse" x1="-22.8996" x2="397.8338" xlink:href="#a" y1="350.684" y2="-70.0494"/><path d="m358.402344 469.332031v-349.867187c0-4.710938-3.820313-8.53125-8.535156-8.53125h-68.265626v-51.199219c-.042968-32.972656-26.761718-59.6914062-59.734374-59.734375h-85.332032c-32.972656.0429688-59.691406 26.761719-59.734375 59.734375v51.199219h-68.265625c-4.714844 0-8.535156 3.820312-8.535156 8.53125v349.867187c.0273438 23.554688 19.113281 42.640625 42.667969 42.667969h273.066406c23.550781-.027344 42.636719-19.113281 42.667969-42.667969zm-136.535156-358.398437h-85.332032v-34.132813c0-9.425781 7.640625-17.066406 17.066406-17.066406h51.199219c9.425781 0 17.066407 7.640625 17.066407 17.066406zm17.066406 42.664062h25.601562v25.601563h-25.601562zm-102.398438-136.53125h85.332032c23.550781.027344 42.636718 19.113282 42.667968 42.667969v76.800781h-25.601562v-59.734375c0-18.851562-15.28125-34.132812-34.132813-34.132812h-51.199219c-18.851562 0-34.132812 15.28125-34.132812 34.132812v59.734375h-25.601562v-76.800781c.027343-23.554687 19.113281-42.640625 42.667968-42.667969zm-42.667968 136.53125h25.601562v25.601563h-25.601562zm-76.800782 315.734375v-341.332031h59.734375v59.734375c0 4.710937 3.820313 8.53125 8.53125 8.53125h42.667969c4.710938 0 8.53125-3.820313 8.53125-8.53125v-59.734375h85.335938v59.734375c0 4.710937 3.820312 8.53125 8.53125 8.53125h42.667968c4.710938 0 8.53125-3.820313 8.53125-8.53125v-59.734375h59.734375v341.332031c0 14.140625-11.460937 25.601563-25.597656 25.601563h-273.070313c-14.136718 0-25.597656-11.460938-25.597656-25.601563zm0 0" fill="url(#b)"/><path d="m171.820312 277.246094c2.363282-4.074219 7.585938-5.460938 11.664063-3.097656 1.285156.746093 2.351563 1.8125 3.097656 3.097656l27.230469 47.019531h-17.546875v17.066406h34.136719c3.914062 0 7.328125-2.667969 8.273437-6.464843l8.535157-34.136719-16.554688-4.128907-3.96875 15.855469-25.300781-43.757812c-7.085938-12.234375-22.75-16.410157-34.984375-9.324219-3.867188 2.242188-7.078125 5.457031-9.320313 9.324219l-24.816406 42.765625 14.765625 8.535156zm51.914063 47.019531h-.066406l.078125-.042969zm0 0" fill="url(#c)"/><path d="m246.316406 346.367188-14.765625 8.535156 19.328125 33.363281c2.359375 4.082031.960938 9.300781-3.121094 11.65625-1.296874.75-2.761718 1.144531-4.257812 1.144531h-56.882812l8.214843-12.332031-14.199219-9.46875-17.066406 25.597656c-1.914062 2.867188-1.914062 6.605469 0 9.472657l17.066406 25.601562 14.199219-9.472656-8.214843-12.332032h56.847656c14.140625.011719 25.605468-11.445312 25.617187-25.582031 0-4.5-1.179687-8.921875-3.429687-12.816406zm0 0" fill="url(#d)"/><path d="m128.28125 352.425781 9.148438 18.304688 15.273437-7.628907-17.066406-34.132812c-1.449219-2.886719-4.40625-4.707031-7.636719-4.703125h-34.132812v17.070313h21.128906l-22.1875 38.398437c-7.070313 12.242187-2.875 27.902344 9.371094 34.96875 3.894531 2.25 8.316406 3.433594 12.816406 3.429687h30.070312v-17.066406h-30.128906c-4.714844-.003906-8.53125-3.828125-8.527344-8.539062.003906-1.496094.394532-2.964844 1.144532-4.257813zm0 0" fill="url(#e)"/></svg>